<mxfile host="app.diagrams.net" agent="Mozilla/5.0 (Macintosh; Intel Mac OS X 10_15_7) AppleWebKit/537.36 (KHTML, like Gecko) Chrome/131.0.0.0 Safari/537.36" version="26.0.6">
  <diagram name="第 1 页" id="U9gac4VCy-aLKHzAkyti">
    <mxGraphModel dx="2261" dy="1930" grid="1" gridSize="10" guides="1" tooltips="1" connect="1" arrows="1" fold="1" page="1" pageScale="1" pageWidth="827" pageHeight="1169" math="0" shadow="0">
      <root>
        <mxCell id="0" />
        <mxCell id="1" parent="0" />
        <mxCell id="qxriNkHgmktTKV7saBZd-3" style="edgeStyle=orthogonalEdgeStyle;rounded=0;orthogonalLoop=1;jettySize=auto;html=1;entryX=0.5;entryY=0;entryDx=0;entryDy=0;" edge="1" parent="1" source="qxriNkHgmktTKV7saBZd-1" target="qxriNkHgmktTKV7saBZd-2">
          <mxGeometry relative="1" as="geometry" />
        </mxCell>
        <mxCell id="qxriNkHgmktTKV7saBZd-1" value="用户添加域名到购物车" style="rounded=0;whiteSpace=wrap;html=1;" vertex="1" parent="1">
          <mxGeometry x="130" y="40" width="130" height="50" as="geometry" />
        </mxCell>
        <mxCell id="qxriNkHgmktTKV7saBZd-5" style="edgeStyle=orthogonalEdgeStyle;rounded=0;orthogonalLoop=1;jettySize=auto;html=1;" edge="1" parent="1" source="qxriNkHgmktTKV7saBZd-2" target="qxriNkHgmktTKV7saBZd-4">
          <mxGeometry relative="1" as="geometry" />
        </mxCell>
        <mxCell id="qxriNkHgmktTKV7saBZd-6" value="参与活动" style="edgeLabel;html=1;align=center;verticalAlign=middle;resizable=0;points=[];" vertex="1" connectable="0" parent="qxriNkHgmktTKV7saBZd-5">
          <mxGeometry x="-0.0667" y="2" relative="1" as="geometry">
            <mxPoint as="offset" />
          </mxGeometry>
        </mxCell>
        <mxCell id="qxriNkHgmktTKV7saBZd-12" style="edgeStyle=orthogonalEdgeStyle;rounded=0;orthogonalLoop=1;jettySize=auto;html=1;entryX=0;entryY=0.5;entryDx=0;entryDy=0;exitX=0;exitY=0.5;exitDx=0;exitDy=0;" edge="1" parent="1" source="qxriNkHgmktTKV7saBZd-2" target="qxriNkHgmktTKV7saBZd-9">
          <mxGeometry relative="1" as="geometry">
            <mxPoint x="87.5" y="180" as="sourcePoint" />
            <mxPoint x="58" y="480" as="targetPoint" />
            <Array as="points">
              <mxPoint x="108" y="180" />
              <mxPoint x="10" y="180" />
              <mxPoint x="10" y="480" />
              <mxPoint x="78" y="480" />
            </Array>
          </mxGeometry>
        </mxCell>
        <mxCell id="qxriNkHgmktTKV7saBZd-13" value="提交订单,不参与活动" style="edgeLabel;html=1;align=center;verticalAlign=middle;resizable=0;points=[];" vertex="1" connectable="0" parent="qxriNkHgmktTKV7saBZd-12">
          <mxGeometry x="-0.0501" y="-4" relative="1" as="geometry">
            <mxPoint y="1" as="offset" />
          </mxGeometry>
        </mxCell>
        <mxCell id="qxriNkHgmktTKV7saBZd-2" value="购物车.com域名可以参与活动" style="rounded=0;whiteSpace=wrap;html=1;" vertex="1" parent="1">
          <mxGeometry x="107.5" y="150" width="175" height="50" as="geometry" />
        </mxCell>
        <mxCell id="qxriNkHgmktTKV7saBZd-8" style="edgeStyle=orthogonalEdgeStyle;rounded=0;orthogonalLoop=1;jettySize=auto;html=1;" edge="1" parent="1" source="qxriNkHgmktTKV7saBZd-4" target="qxriNkHgmktTKV7saBZd-7">
          <mxGeometry relative="1" as="geometry" />
        </mxCell>
        <mxCell id="qxriNkHgmktTKV7saBZd-11" value="提交订单" style="edgeLabel;html=1;align=center;verticalAlign=middle;resizable=0;points=[];" vertex="1" connectable="0" parent="qxriNkHgmktTKV7saBZd-8">
          <mxGeometry x="-0.2" relative="1" as="geometry">
            <mxPoint as="offset" />
          </mxGeometry>
        </mxCell>
        <mxCell id="qxriNkHgmktTKV7saBZd-4" value="将用户.com参与活动的信息存储到cookie" style="rounded=0;whiteSpace=wrap;html=1;" vertex="1" parent="1">
          <mxGeometry x="78" y="260" width="234" height="50" as="geometry" />
        </mxCell>
        <mxCell id="qxriNkHgmktTKV7saBZd-10" style="edgeStyle=orthogonalEdgeStyle;rounded=0;orthogonalLoop=1;jettySize=auto;html=1;" edge="1" parent="1" source="qxriNkHgmktTKV7saBZd-7" target="qxriNkHgmktTKV7saBZd-9">
          <mxGeometry relative="1" as="geometry" />
        </mxCell>
        <mxCell id="qxriNkHgmktTKV7saBZd-7" value="创建table_activity数据,状态0" style="rounded=0;whiteSpace=wrap;html=1;" vertex="1" parent="1">
          <mxGeometry x="78" y="360" width="234" height="50" as="geometry" />
        </mxCell>
        <mxCell id="qxriNkHgmktTKV7saBZd-9" value="订单结束" style="rounded=0;whiteSpace=wrap;html=1;" vertex="1" parent="1">
          <mxGeometry x="78" y="450" width="234" height="50" as="geometry" />
        </mxCell>
        <mxCell id="qxriNkHgmktTKV7saBZd-17" style="edgeStyle=orthogonalEdgeStyle;rounded=0;orthogonalLoop=1;jettySize=auto;html=1;" edge="1" parent="1" source="qxriNkHgmktTKV7saBZd-15" target="qxriNkHgmktTKV7saBZd-16">
          <mxGeometry relative="1" as="geometry" />
        </mxCell>
        <mxCell id="qxriNkHgmktTKV7saBZd-22" value="创建/修改" style="edgeLabel;html=1;align=center;verticalAlign=middle;resizable=0;points=[];" vertex="1" connectable="0" parent="qxriNkHgmktTKV7saBZd-17">
          <mxGeometry x="-0.1333" y="-1" relative="1" as="geometry">
            <mxPoint as="offset" />
          </mxGeometry>
        </mxCell>
        <mxCell id="qxriNkHgmktTKV7saBZd-15" value="主页/域名管理/新域名管理 参与活动" style="rounded=0;whiteSpace=wrap;html=1;" vertex="1" parent="1">
          <mxGeometry x="607" y="-10" width="143" height="60" as="geometry" />
        </mxCell>
        <mxCell id="qxriNkHgmktTKV7saBZd-19" style="edgeStyle=orthogonalEdgeStyle;rounded=0;orthogonalLoop=1;jettySize=auto;html=1;entryX=0.5;entryY=0;entryDx=0;entryDy=0;" edge="1" parent="1" source="qxriNkHgmktTKV7saBZd-16" target="qxriNkHgmktTKV7saBZd-18">
          <mxGeometry relative="1" as="geometry">
            <Array as="points">
              <mxPoint x="620" y="190" />
              <mxPoint x="592" y="190" />
            </Array>
          </mxGeometry>
        </mxCell>
        <mxCell id="qxriNkHgmktTKV7saBZd-20" value="满足" style="edgeLabel;html=1;align=center;verticalAlign=middle;resizable=0;points=[];" vertex="1" connectable="0" parent="qxriNkHgmktTKV7saBZd-19">
          <mxGeometry x="-0.08" y="1" relative="1" as="geometry">
            <mxPoint as="offset" />
          </mxGeometry>
        </mxCell>
        <mxCell id="qxriNkHgmktTKV7saBZd-23" style="edgeStyle=orthogonalEdgeStyle;rounded=0;orthogonalLoop=1;jettySize=auto;html=1;" edge="1" parent="1" source="qxriNkHgmktTKV7saBZd-16" target="qxriNkHgmktTKV7saBZd-21">
          <mxGeometry relative="1" as="geometry">
            <Array as="points">
              <mxPoint x="770" y="190" />
              <mxPoint x="770" y="190" />
            </Array>
          </mxGeometry>
        </mxCell>
        <mxCell id="qxriNkHgmktTKV7saBZd-24" value="不满足" style="edgeLabel;html=1;align=center;verticalAlign=middle;resizable=0;points=[];" vertex="1" connectable="0" parent="qxriNkHgmktTKV7saBZd-23">
          <mxGeometry x="-0.0888" y="1" relative="1" as="geometry">
            <mxPoint x="1" as="offset" />
          </mxGeometry>
        </mxCell>
        <mxCell id="qxriNkHgmktTKV7saBZd-16" value="检测对应域名DNS是否设置forward, 指向是否相同" style="rounded=0;whiteSpace=wrap;html=1;" vertex="1" parent="1">
          <mxGeometry x="561.5" y="110" width="234" height="50" as="geometry" />
        </mxCell>
        <mxCell id="qxriNkHgmktTKV7saBZd-18" value="创建/修改table_activity数据,&amp;nbsp;状态1" style="rounded=0;whiteSpace=wrap;html=1;" vertex="1" parent="1">
          <mxGeometry x="520" y="220" width="143" height="60" as="geometry" />
        </mxCell>
        <mxCell id="qxriNkHgmktTKV7saBZd-21" value="创建/修改table_activity数据,&amp;nbsp;状态0" style="rounded=0;whiteSpace=wrap;html=1;" vertex="1" parent="1">
          <mxGeometry x="700" y="220" width="143" height="60" as="geometry" />
        </mxCell>
        <mxCell id="qxriNkHgmktTKV7saBZd-36" style="edgeStyle=orthogonalEdgeStyle;rounded=0;orthogonalLoop=1;jettySize=auto;html=1;" edge="1" parent="1" source="qxriNkHgmktTKV7saBZd-25" target="qxriNkHgmktTKV7saBZd-28">
          <mxGeometry relative="1" as="geometry" />
        </mxCell>
        <mxCell id="qxriNkHgmktTKV7saBZd-37" value="DNS配置forward" style="edgeLabel;html=1;align=center;verticalAlign=middle;resizable=0;points=[];" vertex="1" connectable="0" parent="qxriNkHgmktTKV7saBZd-36">
          <mxGeometry x="-0.0923" y="2" relative="1" as="geometry">
            <mxPoint as="offset" />
          </mxGeometry>
        </mxCell>
        <mxCell id="qxriNkHgmktTKV7saBZd-25" value="域名管理/新域名管理&lt;div&gt;DNS设置&lt;/div&gt;" style="rounded=0;whiteSpace=wrap;html=1;" vertex="1" parent="1">
          <mxGeometry x="652.5" y="370" width="143" height="60" as="geometry" />
        </mxCell>
        <mxCell id="qxriNkHgmktTKV7saBZd-39" style="edgeStyle=orthogonalEdgeStyle;rounded=0;orthogonalLoop=1;jettySize=auto;html=1;entryX=0;entryY=0.5;entryDx=0;entryDy=0;" edge="1" parent="1" source="qxriNkHgmktTKV7saBZd-28" target="qxriNkHgmktTKV7saBZd-18">
          <mxGeometry relative="1" as="geometry">
            <Array as="points">
              <mxPoint x="500" y="570" />
              <mxPoint x="500" y="250" />
            </Array>
          </mxGeometry>
        </mxCell>
        <mxCell id="qxriNkHgmktTKV7saBZd-40" value="相同" style="edgeLabel;html=1;align=center;verticalAlign=middle;resizable=0;points=[];" vertex="1" connectable="0" parent="qxriNkHgmktTKV7saBZd-39">
          <mxGeometry x="0.311" y="1" relative="1" as="geometry">
            <mxPoint as="offset" />
          </mxGeometry>
        </mxCell>
        <mxCell id="qxriNkHgmktTKV7saBZd-41" style="edgeStyle=orthogonalEdgeStyle;rounded=0;orthogonalLoop=1;jettySize=auto;html=1;entryX=1;entryY=0.5;entryDx=0;entryDy=0;" edge="1" parent="1" source="qxriNkHgmktTKV7saBZd-28" target="qxriNkHgmktTKV7saBZd-21">
          <mxGeometry relative="1" as="geometry">
            <Array as="points">
              <mxPoint x="863" y="570" />
              <mxPoint x="863" y="250" />
            </Array>
          </mxGeometry>
        </mxCell>
        <mxCell id="qxriNkHgmktTKV7saBZd-42" value="不相同" style="edgeLabel;html=1;align=center;verticalAlign=middle;resizable=0;points=[];" vertex="1" connectable="0" parent="qxriNkHgmktTKV7saBZd-41">
          <mxGeometry x="0.0219" y="-2" relative="1" as="geometry">
            <mxPoint as="offset" />
          </mxGeometry>
        </mxCell>
        <mxCell id="qxriNkHgmktTKV7saBZd-28" value="检测是否参与活动, forward是否相同" style="rounded=0;whiteSpace=wrap;html=1;" vertex="1" parent="1">
          <mxGeometry x="607" y="540" width="230" height="60" as="geometry" />
        </mxCell>
        <mxCell id="qxriNkHgmktTKV7saBZd-34" style="edgeStyle=orthogonalEdgeStyle;rounded=0;orthogonalLoop=1;jettySize=auto;html=1;entryX=0.58;entryY=1;entryDx=0;entryDy=0;entryPerimeter=0;" edge="1" parent="1" source="qxriNkHgmktTKV7saBZd-25" target="qxriNkHgmktTKV7saBZd-21">
          <mxGeometry relative="1" as="geometry" />
        </mxCell>
        <mxCell id="qxriNkHgmktTKV7saBZd-38" value="DNS配置其他" style="edgeLabel;html=1;align=center;verticalAlign=middle;resizable=0;points=[];" vertex="1" connectable="0" parent="qxriNkHgmktTKV7saBZd-34">
          <mxGeometry x="-0.4104" y="1" relative="1" as="geometry">
            <mxPoint as="offset" />
          </mxGeometry>
        </mxCell>
      </root>
    </mxGraphModel>
  </diagram>
</mxfile>
